<svg width="189" height="45" viewBox="0 0 189 45" fill="none" xmlns="http://www.w3.org/2000/svg">
<rect width="189" height="45" rx="10" fill="#A5ED00"/>
<path d="M70.9873 28.1367C72.5518 28.1367 73.6387 27.3516 74.248 25.7812L76.5068 26.6338C76.0205 27.8291 75.3057 28.7197 74.3623 29.3057C73.4248 29.8857 72.2998 30.1758 70.9873 30.1758C68.9951 30.1758 67.4541 29.6133 66.3643 28.4883C65.2803 27.3574 64.7383 25.7783 64.7383 23.751C64.7383 21.7178 65.2627 20.1562 66.3115 19.0664C67.3604 17.9766 68.8809 17.4316 70.873 17.4316C72.3262 17.4316 73.5098 17.7246 74.4238 18.3105C75.3379 18.8906 75.9795 19.7461 76.3486 20.877L74.0635 21.501C73.8701 20.8799 73.4893 20.3877 72.9209 20.0244C72.3584 19.6553 71.6934 19.4707 70.9258 19.4707C69.7539 19.4707 68.8633 19.834 68.2539 20.5605C67.6504 21.2871 67.3486 22.3506 67.3486 23.751C67.3486 25.1748 67.6592 26.2617 68.2803 27.0117C68.9072 27.7617 69.8096 28.1367 70.9873 28.1367ZM80.6992 22.3887C81.0332 21.6621 81.4521 21.1348 81.9561 20.8066C82.46 20.4785 83.0605 20.3145 83.7578 20.3145C84.7656 20.3145 85.5391 20.625 86.0781 21.2461C86.6172 21.8672 86.8867 22.7754 86.8867 23.9707V30H84.4258V24.6738C84.4258 23.0039 83.8604 22.1689 82.7295 22.1689C82.1318 22.1689 81.6484 22.4268 81.2793 22.9424C80.916 23.4521 80.7344 24.1084 80.7344 24.9111V30H78.2646V16.957H80.7344V20.5166C80.7344 21.1553 80.7109 21.7793 80.6641 22.3887H80.6992ZM98.3037 25.2363C98.3037 26.7773 97.876 27.9873 97.0205 28.8662C96.165 29.7393 94.9814 30.1758 93.4697 30.1758C91.9873 30.1758 90.8242 29.7363 89.9805 28.8574C89.1367 27.9785 88.7148 26.7715 88.7148 25.2363C88.7148 23.707 89.1367 22.5059 89.9805 21.6328C90.8242 20.7539 92.0049 20.3145 93.5225 20.3145C95.0752 20.3145 96.2588 20.7393 97.0732 21.5889C97.8936 22.4326 98.3037 23.6484 98.3037 25.2363ZM95.7197 25.2363C95.7197 24.1055 95.5352 23.2852 95.166 22.7754C94.7969 22.2656 94.2607 22.0107 93.5576 22.0107C92.0576 22.0107 91.3076 23.0859 91.3076 25.2363C91.3076 26.2969 91.4893 27.1055 91.8525 27.6621C92.2217 28.2129 92.752 28.4883 93.4434 28.4883C94.9609 28.4883 95.7197 27.4043 95.7197 25.2363ZM109.308 25.2363C109.308 26.7773 108.88 27.9873 108.024 28.8662C107.169 29.7393 105.985 30.1758 104.474 30.1758C102.991 30.1758 101.828 29.7363 100.984 28.8574C100.141 27.9785 99.7188 26.7715 99.7188 25.2363C99.7188 23.707 100.141 22.5059 100.984 21.6328C101.828 20.7539 103.009 20.3145 104.526 20.3145C106.079 20.3145 107.263 20.7393 108.077 21.5889C108.897 22.4326 109.308 23.6484 109.308 25.2363ZM106.724 25.2363C106.724 24.1055 106.539 23.2852 106.17 22.7754C105.801 22.2656 105.265 22.0107 104.562 22.0107C103.062 22.0107 102.312 23.0859 102.312 25.2363C102.312 26.2969 102.493 27.1055 102.856 27.6621C103.226 28.2129 103.756 28.4883 104.447 28.4883C105.965 28.4883 106.724 27.4043 106.724 25.2363ZM119.292 27.2227C119.292 28.1426 118.914 28.8662 118.158 29.3936C117.408 29.915 116.368 30.1758 115.038 30.1758C113.731 30.1758 112.729 29.9707 112.032 29.5605C111.341 29.1445 110.881 28.5 110.652 27.627L112.823 27.3018C112.946 27.7529 113.157 28.0723 113.456 28.2598C113.761 28.4473 114.288 28.541 115.038 28.541C115.729 28.541 116.233 28.4531 116.55 28.2773C116.866 28.1016 117.024 27.8262 117.024 27.4512C117.024 27.1465 116.896 26.9062 116.638 26.7305C116.386 26.5488 115.955 26.3965 115.346 26.2734C113.951 25.998 113.011 25.7432 112.524 25.5088C112.038 25.2686 111.666 24.9609 111.408 24.5859C111.156 24.2051 111.03 23.7393 111.03 23.1885C111.03 22.2803 111.379 21.5742 112.076 21.0703C112.779 20.5605 113.772 20.3057 115.056 20.3057C116.187 20.3057 117.095 20.5254 117.78 20.9648C118.472 21.4043 118.902 22.04 119.072 22.8721L116.884 23.1006C116.813 22.7139 116.641 22.4268 116.365 22.2393C116.09 22.0459 115.653 21.9492 115.056 21.9492C114.47 21.9492 114.03 22.0254 113.737 22.1777C113.444 22.3242 113.298 22.5732 113.298 22.9248C113.298 23.2002 113.409 23.4199 113.632 23.584C113.86 23.7422 114.241 23.874 114.774 23.9795C115.519 24.1318 116.178 24.29 116.752 24.4541C117.332 24.6123 117.795 24.8027 118.141 25.0254C118.492 25.248 118.771 25.5352 118.976 25.8867C119.187 26.2324 119.292 26.6777 119.292 27.2227ZM125.189 30.1758C123.76 30.1758 122.661 29.7539 121.894 28.9102C121.126 28.0605 120.742 26.8242 120.742 25.2012C120.742 23.6309 121.132 22.4238 121.911 21.5801C122.69 20.7363 123.795 20.3145 125.225 20.3145C126.59 20.3145 127.633 20.7686 128.354 21.6768C129.074 22.5791 129.435 23.9033 129.435 25.6494V25.7197H123.335C123.335 26.6455 123.505 27.3457 123.845 27.8203C124.19 28.2891 124.68 28.5234 125.312 28.5234C126.186 28.5234 126.736 28.1455 126.965 27.3896L129.294 27.5918C128.62 29.3145 127.252 30.1758 125.189 30.1758ZM125.189 21.8701C124.609 21.8701 124.161 22.0723 123.845 22.4766C123.534 22.8809 123.37 23.4463 123.353 24.1729H127.044C126.997 23.4053 126.812 22.8311 126.49 22.4502C126.168 22.0635 125.734 21.8701 125.189 21.8701ZM139.226 22.1602V30H136.765V22.1602H135.376V20.4902H136.765V19.4971C136.765 18.6357 136.993 17.9971 137.45 17.5811C137.907 17.165 138.602 16.957 139.533 16.957C139.996 16.957 140.518 17.0039 141.098 17.0977V18.6885C140.857 18.6357 140.617 18.6094 140.377 18.6094C139.955 18.6094 139.656 18.6943 139.48 18.8643C139.311 19.0283 139.226 19.3213 139.226 19.7432V20.4902H141.098V22.1602H139.226ZM142.319 18.7764V16.957H144.789V18.7764H142.319ZM142.319 30V20.4902H144.789V30H142.319ZM147.329 30V16.957H149.799V30H147.329ZM156.232 30.1758C154.803 30.1758 153.704 29.7539 152.937 28.9102C152.169 28.0605 151.785 26.8242 151.785 25.2012C151.785 23.6309 152.175 22.4238 152.954 21.5801C153.733 20.7363 154.838 20.3145 156.268 20.3145C157.633 20.3145 158.676 20.7686 159.396 21.6768C160.117 22.5791 160.478 23.9033 160.478 25.6494V25.7197H154.378C154.378 26.6455 154.548 27.3457 154.888 27.8203C155.233 28.2891 155.723 28.5234 156.355 28.5234C157.229 28.5234 157.779 28.1455 158.008 27.3896L160.337 27.5918C159.663 29.3145 158.295 30.1758 156.232 30.1758ZM156.232 21.8701C155.652 21.8701 155.204 22.0723 154.888 22.4766C154.577 22.8809 154.413 23.4463 154.396 24.1729H158.087C158.04 23.4053 157.855 22.8311 157.533 22.4502C157.211 22.0635 156.777 21.8701 156.232 21.8701Z" fill="white"/>
<g clip-path="url(#clip0)">
<path d="M47.4285 26.1429C46.9946 26.1429 46.6428 26.4947 46.6428 26.9286V31.6429C46.6428 32.0768 46.291 32.4286 45.8571 32.4286H30.1429C29.7089 32.4286 29.3571 32.0768 29.3571 31.6429V26.9286C29.3571 26.4947 29.0054 26.1429 28.5714 26.1429C28.1375 26.1429 27.7857 26.4947 27.7857 26.9286V31.6429C27.7857 32.9447 28.841 34 30.1428 34H45.8571C47.1589 34 48.2143 32.9447 48.2143 31.6429V26.9286C48.2143 26.4947 47.8625 26.1429 47.4285 26.1429Z" fill="#001022"/>
<path d="M42.4663 25.5874C42.1618 25.2933 41.6791 25.2933 41.3747 25.5874L38.7857 28.1747V12.7857C38.7857 12.3518 38.4339 12 38 12C37.566 12 37.2143 12.3518 37.2143 12.7857V28.1747L34.6269 25.5874C34.3147 25.2859 33.8173 25.2946 33.5159 25.6066C33.2218 25.9111 33.2218 26.3938 33.5159 26.6983L37.4444 30.6269C37.7509 30.9341 38.2484 30.9348 38.5556 30.6283C38.5561 30.6279 38.5565 30.6274 38.557 30.6269L42.4856 26.6983C42.7871 26.3862 42.7784 25.8888 42.4663 25.5874Z" fill="#001022"/>
</g>
<defs>
<clipPath id="clip0">
<rect width="22" height="22" fill="white" transform="translate(27 12)"/>
</clipPath>
</defs>
</svg>
