<svg width="189" height="45" viewBox="0 0 189 45" fill="none" xmlns="http://www.w3.org/2000/svg">
<rect width="189" height="45" rx="10" fill="#A5ED00"/>
<path d="M92.2041 30V17.6162H94.7969V27.9961H101.441V30H92.2041ZM112.296 25.2363C112.296 26.7773 111.868 27.9873 111.013 28.8662C110.157 29.7393 108.974 30.1758 107.462 30.1758C105.979 30.1758 104.816 29.7363 103.973 28.8574C103.129 27.9785 102.707 26.7715 102.707 25.2363C102.707 23.707 103.129 22.5059 103.973 21.6328C104.816 20.7539 105.997 20.3145 107.515 20.3145C109.067 20.3145 110.251 20.7393 111.065 21.5889C111.886 22.4326 112.296 23.6484 112.296 25.2363ZM109.712 25.2363C109.712 24.1055 109.527 23.2852 109.158 22.7754C108.789 22.2656 108.253 22.0107 107.55 22.0107C106.05 22.0107 105.3 23.0859 105.3 25.2363C105.3 26.2969 105.481 27.1055 105.845 27.6621C106.214 28.2129 106.744 28.4883 107.436 28.4883C108.953 28.4883 109.712 27.4043 109.712 25.2363ZM116.462 30.1758C115.542 30.1758 114.824 29.9268 114.309 29.4287C113.793 28.9248 113.535 28.2188 113.535 27.3105C113.535 26.3262 113.854 25.5762 114.493 25.0605C115.138 24.5449 116.069 24.2812 117.288 24.2695L119.336 24.2344V23.751C119.336 23.1299 119.228 22.6699 119.011 22.3711C118.794 22.0664 118.439 21.9141 117.947 21.9141C117.49 21.9141 117.153 22.0195 116.937 22.2305C116.726 22.4355 116.594 22.7783 116.541 23.2588L113.966 23.1357C114.124 22.21 114.546 21.5098 115.231 21.0352C115.923 20.5547 116.863 20.3145 118.053 20.3145C119.254 20.3145 120.18 20.6104 120.83 21.2021C121.48 21.7939 121.806 22.6348 121.806 23.7246V27.1875C121.806 27.7207 121.864 28.0898 121.981 28.2949C122.104 28.4941 122.307 28.5938 122.588 28.5938C122.775 28.5938 122.957 28.5762 123.133 28.541V29.877C122.986 29.9121 122.854 29.9443 122.737 29.9736C122.62 30.0029 122.503 30.0264 122.386 30.0439C122.269 30.0615 122.143 30.0762 122.008 30.0879C121.879 30.0996 121.727 30.1055 121.551 30.1055C120.93 30.1055 120.47 29.9531 120.171 29.6484C119.878 29.3438 119.702 28.8955 119.644 28.3037H119.591C118.899 29.5518 117.856 30.1758 116.462 30.1758ZM119.336 25.5967L118.07 25.6143C117.496 25.6377 117.089 25.7021 116.849 25.8076C116.608 25.9072 116.424 26.0625 116.295 26.2734C116.172 26.4844 116.11 26.7656 116.11 27.1172C116.11 27.5684 116.213 27.9053 116.418 28.1279C116.629 28.3447 116.907 28.4531 117.253 28.4531C117.64 28.4531 117.991 28.3477 118.308 28.1367C118.63 27.9258 118.882 27.6357 119.063 27.2666C119.245 26.8916 119.336 26.4961 119.336 26.0801V25.5967ZM130.445 30C130.422 29.9121 130.393 29.6924 130.357 29.3408C130.328 28.9834 130.313 28.6875 130.313 28.4531H130.278C129.745 29.6016 128.731 30.1758 127.237 30.1758C126.13 30.1758 125.274 29.7451 124.671 28.8838C124.067 28.0166 123.766 26.8066 123.766 25.2539C123.766 23.6777 124.082 22.4619 124.715 21.6064C125.354 20.7451 126.256 20.3145 127.422 20.3145C128.096 20.3145 128.676 20.4551 129.162 20.7363C129.654 21.0176 130.032 21.4365 130.296 21.9932H130.313L130.296 20.4287V16.957H132.766V27.9258C132.766 28.5117 132.789 29.2031 132.836 30H130.445ZM130.331 25.1924C130.331 24.167 130.158 23.3789 129.812 22.8281C129.473 22.2715 128.969 21.9932 128.301 21.9932C127.639 21.9932 127.146 22.2627 126.824 22.8018C126.502 23.335 126.341 24.1523 126.341 25.2539C126.341 27.4102 126.988 28.4883 128.283 28.4883C128.934 28.4883 129.438 28.2041 129.795 27.6357C130.152 27.0615 130.331 26.2471 130.331 25.1924Z" fill="white"/>
<g clip-path="url(#clip0)">
<path d="M74.4285 26.1429C73.9946 26.1429 73.6428 26.4947 73.6428 26.9286V31.6429C73.6428 32.0768 73.291 32.4286 72.8571 32.4286H57.1429C56.7089 32.4286 56.3571 32.0768 56.3571 31.6429V26.9286C56.3571 26.4947 56.0054 26.1429 55.5714 26.1429C55.1375 26.1429 54.7857 26.4947 54.7857 26.9286V31.6429C54.7857 32.9447 55.841 34 57.1428 34H72.8571C74.1589 34 75.2143 32.9447 75.2143 31.6429V26.9286C75.2143 26.4947 74.8625 26.1429 74.4285 26.1429Z" fill="#001022"/>
<path d="M69.4663 25.5874C69.1618 25.2933 68.6791 25.2933 68.3747 25.5874L65.7857 28.1747V12.7857C65.7857 12.3518 65.4339 12 65 12C64.566 12 64.2143 12.3518 64.2143 12.7857V28.1747L61.6269 25.5874C61.3147 25.2859 60.8173 25.2946 60.5159 25.6066C60.2218 25.9111 60.2218 26.3938 60.5159 26.6983L64.4444 30.6269C64.7509 30.9341 65.2484 30.9348 65.5556 30.6283C65.5561 30.6279 65.5565 30.6274 65.557 30.6269L69.4856 26.6983C69.7871 26.3862 69.7784 25.8888 69.4663 25.5874Z" fill="#001022"/>
</g>
<defs>
<clipPath id="clip0">
<rect width="22" height="22" fill="white" transform="translate(54 12)"/>
</clipPath>
</defs>
</svg>
