<svg width="197" height="39" viewBox="0 0 197 39" fill="none" xmlns="http://www.w3.org/2000/svg">
<path d="M57.2773 28L55.8125 23.7812H49.5195L48.0547 28H44.5977L50.6211 11.4883H54.6992L60.6992 28H57.2773ZM52.6602 14.0312L52.5898 14.2891C52.5117 14.5703 52.418 14.8906 52.3086 15.25C52.1992 15.6094 51.5273 17.5859 50.293 21.1797H55.0391L53.4102 16.4336L52.9062 14.8398L52.6602 14.0312ZM69.8164 28.2344C67.543 28.2344 65.8008 27.6797 64.5898 26.5703C63.3867 25.4609 62.7852 23.875 62.7852 21.8125V11.4883H66.2422V21.543C66.2422 22.8477 66.5508 23.8398 67.168 24.5195C67.793 25.1914 68.707 25.5273 69.9102 25.5273C71.1445 25.5273 72.0938 25.1758 72.7578 24.4727C73.4219 23.7617 73.7539 22.7461 73.7539 21.4258V11.4883H77.2109V21.6367C77.2109 23.7305 76.5625 25.3555 75.2656 26.5117C73.9766 27.6602 72.1602 28.2344 69.8164 28.2344ZM95.0117 19.6211C95.0117 21.3242 94.6758 22.8125 94.0039 24.0859C93.3398 25.3516 92.3945 26.3203 91.168 26.9922C89.9492 27.6641 88.5508 28 86.9727 28H80.293V11.4883H86.2695C89.0508 11.4883 91.2031 12.1914 92.7266 13.5977C94.25 14.9961 95.0117 17.0039 95.0117 19.6211ZM91.5312 19.6211C91.5312 17.8477 91.0703 16.4961 90.1484 15.5664C89.2266 14.6289 87.9102 14.1602 86.1992 14.1602H83.75V25.3281H86.6797C88.1641 25.3281 89.3438 24.8164 90.2188 23.793C91.0938 22.7695 91.5312 21.3789 91.5312 19.6211ZM97.6367 28V11.4883H101.094V28H97.6367ZM120.371 19.668C120.371 21.3867 120.031 22.8984 119.352 24.2031C118.672 25.5078 117.699 26.5078 116.434 27.2031C115.168 27.8906 113.691 28.2344 112.004 28.2344C109.41 28.2344 107.375 27.4727 105.898 25.9492C104.43 24.418 103.695 22.3242 103.695 19.668C103.695 17.0195 104.43 14.9531 105.898 13.4688C107.367 11.9844 109.41 11.2422 112.027 11.2422C114.645 11.2422 116.688 11.9922 118.156 13.4922C119.633 14.9922 120.371 17.0508 120.371 19.668ZM116.844 19.668C116.844 17.8867 116.422 16.4922 115.578 15.4844C114.734 14.4688 113.551 13.9609 112.027 13.9609C110.48 13.9609 109.285 14.4648 108.441 15.4727C107.598 16.4727 107.176 17.8711 107.176 19.668C107.176 21.4805 107.605 22.9102 108.465 23.957C109.332 24.9961 110.512 25.5156 112.004 25.5156C113.551 25.5156 114.742 25.0078 115.578 23.9922C116.422 22.9766 116.844 21.5352 116.844 19.668ZM122.223 28V25.7148C122.652 24.7695 123.262 23.8477 124.051 22.9492C124.848 22.0508 125.848 21.1133 127.051 20.1367C128.207 19.1992 129.016 18.4258 129.477 17.8164C129.945 17.207 130.18 16.6094 130.18 16.0234C130.18 14.5859 129.457 13.8672 128.012 13.8672C127.309 13.8672 126.77 14.0586 126.395 14.4414C126.027 14.8164 125.789 15.3828 125.68 16.1406L122.363 15.9531C122.551 14.4219 123.121 13.2539 124.074 12.4492C125.035 11.6445 126.34 11.2422 127.988 11.2422C129.77 11.2422 131.137 11.6484 132.09 12.4609C133.043 13.2734 133.52 14.4141 133.52 15.8828C133.52 16.6562 133.367 17.3555 133.062 17.9805C132.758 18.6055 132.367 19.1836 131.891 19.7148C131.414 20.2383 130.883 20.7305 130.297 21.1914C129.719 21.6523 129.156 22.1016 128.609 22.5391C128.062 22.9766 127.562 23.418 127.109 23.8633C126.664 24.3086 126.332 24.7852 126.113 25.293H133.777V28H122.223ZM143.188 13.3164V28H140.961V13.3164H135.289V11.4883H148.859V13.3164H143.188ZM151.391 28V11.4883H163.918V13.3164H153.629V18.6133H163.215V20.418H153.629V26.1719H164.398V28H151.391ZM178.461 28L173.504 20.7812L168.441 28H165.969L172.25 19.4219L166.449 11.4883H168.922L173.516 17.9688L177.98 11.4883H180.453L174.805 19.3398L180.934 28H178.461ZM189.875 13.3164V28H187.648V13.3164H181.977V11.4883H195.547V13.3164H189.875Z" fill="black"/>
<rect width="39" height="39" rx="11" fill="#A5ED00"/>
<g clip-path="url(#clip0)">
<path d="M26.2234 20.893C26.2234 20.4701 25.8805 20.1273 25.4576 20.1273C25.0348 20.1273 24.6919 20.4701 24.6919 20.893C24.6919 23.9587 22.1977 26.4529 19.132 26.4529C16.0663 26.4529 13.5721 23.9587 13.5721 20.893C13.5721 20.4701 13.2293 20.1273 12.8064 20.1273C12.3835 20.1273 12.0407 20.4701 12.0407 20.893C12.0407 24.5444 14.815 27.5592 18.3663 27.9424V30.1101H16.4807C16.0578 30.1101 15.715 30.4529 15.715 30.8758C15.715 31.2987 16.0578 31.6415 16.4807 31.6415H21.7834C22.2063 31.6415 22.5492 31.2987 22.5492 30.8758C22.5492 30.4529 22.2063 30.1101 21.7834 30.1101H19.8978V27.9424C23.449 27.5592 26.2234 24.5444 26.2234 20.893Z" fill="white"/>
<path d="M19.1321 25.5641C21.522 25.5641 23.4662 23.6199 23.4662 21.23V12.4284C23.4662 10.0385 21.522 8.09433 19.1321 8.09433C16.7423 8.09433 14.7981 10.0385 14.7981 12.4284V21.23C14.7981 23.6199 16.7423 25.5641 19.1321 25.5641ZM16.3295 12.4284C16.3295 10.883 17.5867 9.62576 19.1321 9.62576C20.6775 9.62576 21.9347 10.883 21.9347 12.4284V21.23C21.9347 22.7754 20.6775 24.0326 19.1321 24.0326C17.5867 24.0326 16.3295 22.7754 16.3295 21.23V12.4284Z" fill="white"/>
</g>
<circle cx="26.4906" cy="6.62263" r="0.735849" fill="white"/>
<defs>
<clipPath id="clip0">
<rect width="23.5472" height="23.5472" fill="white" transform="translate(7.35849 8.09433)"/>
</clipPath>
</defs>
</svg>
